HIERARCHY
ROOT Hips
{
	OFFSET 0.000000 0.000000 0.000000
	CHANNELS 6 Xposition Yposition Zposition Xrotation Yrotation Zrotation
	JOINT LeftUpLeg_virtual
	{
		OFFSET 0.000000 0.000000 0.000000
		CHANNELS 3 Xrotation Yrotation Zrotation
		JOINT LeftUpLeg
		{
			OFFSET 13.026900 -6.336304 -1.092800
			CHANNELS 3 Xrotation Yrotation Zrotation
			JOINT LeftLeg
			{
				OFFSET 0.524474 -46.096886 9.782700
				CHANNELS 3 Xrotation Yrotation Zrotation
				JOINT LeftFoot
				{
					OFFSET -0.524474 -53.427422 -12.948200
					CHANNELS 3 Xrotation Yrotation Zrotation
					JOINT LeftToeBase
					{
						OFFSET 0.192200 -14.009700 16.364100
						CHANNELS 3 Xrotation Yrotation Zrotation
						JOINT LeftToe_End
						{
							OFFSET -1.784700 -0.561700 9.474800
							CHANNELS 3 Xrotation Yrotation Zrotation
							End Site
							{
								OFFSET 0 0 0
							}
						}
					}
				}
			}
		}
	}
	JOINT RightUpLeg_virtual
	{
		OFFSET 0.000000 0.000000 0.000000
		CHANNELS 3 Xrotation Yrotation Zrotation
		JOINT RightUpLeg
		{
			OFFSET -12.883000 -6.336304 -1.092800
			CHANNELS 3 Xrotation Yrotation Zrotation
			JOINT RightLeg
			{
				OFFSET -0.524587 -46.096825 9.782800
				CHANNELS 3 Xrotation Yrotation Zrotation
				JOINT RightFoot
				{
					OFFSET 0.524587 -53.427383 -12.948300
					CHANNELS 3 Xrotation Yrotation Zrotation
					JOINT RightToeBase
					{
						OFFSET -0.192200 -14.009700 16.364100
						CHANNELS 3 Xrotation Yrotation Zrotation
						JOINT RightToe_End
						{
							OFFSET 1.784700 -0.561700 9.474800
							CHANNELS 3 Xrotation Yrotation Zrotation
							End Site
							{
								OFFSET 0 0 0
							}
						}
					}
				}
			}
		}
	}
	JOINT Spine_virtual
	{
		OFFSET 0.000000 0.000000 0.000000
		CHANNELS 3 Xrotation Yrotation Zrotation
		JOINT Spine
		{
			OFFSET 0.072000 7.257294 -0.789700
			CHANNELS 3 Xrotation Yrotation Zrotation
			JOINT Spine1
			{
				OFFSET 0.000000 12.508769 -0.658067
				CHANNELS 3 Xrotation Yrotation Zrotation
				JOINT Spine1_split
				{
					OFFSET 0.000000 12.508769 -0.658067
					CHANNELS 3 Xrotation Yrotation Zrotation
					JOINT Spine2
					{
						OFFSET 0.000000 12.508769 -0.658067
						CHANNELS 3 Xrotation Yrotation Zrotation
						JOINT Neck_virtual
						{
							OFFSET 0.000000 0.000000 0.000000
							CHANNELS 3 Xrotation Yrotation Zrotation
							JOINT Neck
							{
								OFFSET 0.000000 14.033295 7.520400
								CHANNELS 3 Xrotation Yrotation Zrotation
								JOINT Head
								{
									OFFSET 0.000000 8.198502 5.703100
									CHANNELS 3 Xrotation Yrotation Zrotation
									JOINT HeadTop_End
									{
										OFFSET 0.000000 17.760803 13.332701
										CHANNELS 3 Xrotation Yrotation Zrotation
										End Site
										{
											OFFSET 0 0 0
										}
									}
								}
							}
						}
						JOINT LeftShoulder_virtual
						{
							OFFSET 0.000000 0.000000 0.000000
							CHANNELS 3 Xrotation Yrotation Zrotation
							JOINT LeftShoulder
							{
								OFFSET 6.292450 5.785301 -0.669000
								CHANNELS 3 Xrotation Yrotation Zrotation
								JOINT LeftShoulder_split
								{
									OFFSET 6.292450 5.785301 -0.669000
									CHANNELS 3 Xrotation Yrotation Zrotation
									JOINT LeftArm
									{
										OFFSET 13.907140 -6.093903 1.965100
										CHANNELS 3 Xrotation Yrotation Zrotation
										JOINT LeftForeArm
										{
											OFFSET 34.140198 0.000000 0.000000
											CHANNELS 3 Xrotation Yrotation Zrotation
											JOINT LeftHand
											{
												OFFSET 40.960209 0.000000 0.000000
												CHANNELS 3 Xrotation Yrotation Zrotation
												End Site
												{
													OFFSET 0 0 0
												}
											}
										}
									}
								}
							}
						}
						JOINT RightShoulder_virtual
						{
							OFFSET 0.000000 0.000000 0.000000
							CHANNELS 3 Xrotation Yrotation Zrotation
							JOINT RightShoulder
							{
								OFFSET -6.292450 5.785301 -0.669000
								CHANNELS 3 Xrotation Yrotation Zrotation
								JOINT RightShoulder_split
								{
									OFFSET -6.292450 5.785301 -0.669000
									CHANNELS 3 Xrotation Yrotation Zrotation
									JOINT RightArm
									{
										OFFSET -13.907140 -6.093903 1.965100
										CHANNELS 3 Xrotation Yrotation Zrotation
										JOINT RightForeArm
										{
											OFFSET -34.140198 0.000000 0.000000
											CHANNELS 3 Xrotation Yrotation Zrotation
											JOINT RightHand
											{
												OFFSET -40.960209 0.000000 0.000000
												CHANNELS 3 Xrotation Yrotation Zrotation
												End Site
												{
													OFFSET 0 0 0
												}
											}
										}
									}
								}
							}
						}
					}
				}
			}
		}
	}
}
MOTION
Frames: 4
Frame Time: 0.03333333
16.834881 49.127426 -4.979366 0.000000 0.000000 0.000000 4.221936 -37.289039 10.334970 -85.992191 -16.683859 51.134672 62.832256 16.133253 -6.560420 46.017699 -4.214066 -3.041871 -2.689039 0.505250 -0.140554 0.000000 0.000000 0.000000 -0.066971 -32.144100 9.756239 3.628839 1.486029 -19.036880 100.142403 9.805969 -4.422874 14.834126 6.254702 17.616916 34.127201 -0.573999 -10.006443 0.000000 0.000000 0.000000 0.727451 -38.729328 9.145900 2.528904 -2.567885 -4.985885 2.159307 -4.064140 -2.160612 0.945084 0.982616 0.018649 0.000000 0.000000 0.000000 1.696422 -4.354887 -2.099052 0.196508 1.719514 2.254648 1.999020 15.139497 5.560269 0.000000 0.000000 0.000000 1.727341 -4.125004 -2.331958 1.574519 1.227816 -1.882414 -4.876753 1.229372 -1.098783 0.297563 -15.226727 -48.315696 178.081378 -86.790818 178.536541 0.000000 0.000000 0.000000 3.025962 -4.073095 -2.376467 5.429518 16.987003 3.311454 -1.465258 4.451899 -0.962409 -32.327282 -13.699409 46.186815 178.368286 83.017842 -178.818000 0.000000 0.000000 0.000000 
16.730577 49.144382 -4.971855 0.000000 0.000000 0.000000 4.367400 -37.252244 10.451583 -85.889834 -16.581597 51.243067 62.789027 16.288051 -6.760806 46.013844 -4.169667 -2.973856 -2.813499 0.506075 -0.153899 0.000000 0.000000 0.000000 0.084108 -32.143628 9.865483 3.480442 1.540998 -18.975370 100.164758 9.781220 -4.452906 14.781875 6.194568 17.624905 34.249881 -0.554483 -9.864260 0.000000 0.000000 0.000000 0.902214 -38.643547 9.249008 2.475636 -2.494484 -5.217250 2.184776 -3.997343 -2.339584 0.942439 0.968790 0.028747 0.000000 0.000000 0.000000 1.695561 -4.304457 -2.245623 0.029846 1.588632 2.704415 1.879149 15.216941 5.872232 0.000000 0.000000 0.000000 1.724788 -4.046297 -2.490996 1.533780 1.447896 -1.134232 -5.015037 1.102910 -1.258559 0.380397 -15.302366 -48.636537 -179.788952 -86.763176 -179.269421 0.000000 0.000000 0.000000 3.010151 -4.011780 -2.568541 5.392286 17.133294 3.839288 -1.547176 4.504435 -0.890980 -31.226365 -12.524812 43.783295 179.104499 78.915514 -179.517438 0.000000 0.000000 0.000000 
16.620453 49.171661 -4.952614 0.000000 0.000000 0.000000 4.498107 -37.210447 10.532415 -85.815952 -16.464731 51.377393 62.787620 16.455032 -6.961174 45.991874 -4.185886 -2.896269 -2.907145 0.509848 -0.172808 0.000000 0.000000 0.000000 0.220046 -32.118459 9.933081 3.378234 1.559166 -18.872786 100.154335 9.753341 -4.481459 14.749344 6.135946 17.616014 34.377438 -0.536388 -9.733684 0.000000 0.000000 0.000000 1.054209 -38.505615 9.315576 2.405076 -2.401978 -5.440106 2.217104 -3.935444 -2.508803 0.939418 0.934379 0.042795 0.000000 0.000000 0.000000 1.711600 -4.249083 -2.383807 -0.166675 1.430589 3.180922 1.800107 15.255028 6.139940 0.000000 0.000000 0.000000 1.722294 -3.965356 -2.641882 1.476487 1.726621 -0.539558 -5.040365 0.953881 -1.353142 0.431256 -15.448377 -48.813364 -178.209744 -86.687607 -177.624465 0.000000 0.000000 0.000000 3.003079 -3.946821 -2.749075 5.338997 17.263762 4.481982 -1.631844 4.503670 -0.785590 -30.470013 -11.602490 41.682882 179.434875 75.185493 -179.793761 0.000000 0.000000 0.000000 
16.502829 49.209816 -4.936382 0.000000 0.000000 0.000000 4.602098 -37.160617 10.562126 -85.769937 -16.345602 51.520202 62.825958 16.623685 -7.145053 45.957382 -4.259491 -2.810333 -2.971461 0.515235 -0.191920 0.000000 0.000000 0.000000 0.328130 -32.060611 9.948743 3.324284 1.527431 -18.733078 100.126714 9.722191 -4.508408 14.747710 6.086744 17.612913 34.463266 -0.521458 -9.632384 0.000000 0.000000 0.000000 1.172557 -38.327415 9.337732 2.323408 -2.292915 -5.651323 2.263310 -3.873506 -2.664796 0.944071 0.892643 0.066703 0.000000 0.000000 0.000000 1.750674 -4.188896 -2.511814 -0.375431 1.262925 3.688700 1.800414 15.303899 6.317389 0.000000 0.000000 0.000000 1.740796 -3.883646 -2.778012 1.407194 2.028587 -0.055530 -4.959700 0.780429 -1.346020 0.469380 -15.659921 -48.882783 -177.037711 -86.573829 -176.385728 0.000000 0.000000 0.000000 3.026151 -3.878609 -2.913406 5.262649 17.412913 5.263031 -1.683731 4.418840 -0.683631 -29.743114 -10.689583 39.795739 179.643537 71.936987 -179.931580 0.000000 0.000000 0.000000 
